<svg id="Detail-Favorite" xmlns="http://www.w3.org/2000/svg" width="15" height="24" viewBox="0 0 15 24">
  <g id="Path_1" data-name="Path 1" fill="none">
    <path d="M1,0H14a1,1,0,0,1,1,1V23a1,1,0,0,1-1,1L7.717,18.16,1,24a1,1,0,0,1-1-1V1A1,1,0,0,1,1,0Z" stroke="none"/>
    <path d="M 2 2 L 2 20.48033142089844 L 6.404549598693848 16.65085029602051 L 7.76140022277832 15.47115993499756 L 9.078380584716797 16.69520950317383 L 13 20.34010887145996 L 13 2 L 2 2 M 1 0 L 14 0 C 14.55228042602539 0 15 0.4477195739746094 15 1 L 15 23 C 15 23.55228042602539 14.55228042602539 24 14 24 L 7.716800212860107 18.16016006469727 L 1 24 C 0.4477100372314453 24 0 23.55228042602539 0 23 L 0 1 C 0 0.4477195739746094 0.4477100372314453 0 1 0 Z" stroke="none" fill="#9093b9"/>
  </g>
</svg>
