<svg xmlns="http://www.w3.org/2000/svg" width="17.778" height="17.708" viewBox="0 0 17.778 17.708">
  <g id="Group_40" data-name="Group 40" transform="translate(0 0.001)">
    <g id="Group_143" data-name="Group 143">
      <path id="Path_44" data-name="Path 44" d="M-38.939-6017.692H-55.147a.785.785,0,0,0-.785.786.786.786,0,0,0,.785.785h16.208a.786.786,0,0,0,.785-.785A.785.785,0,0,0-38.939-6017.692Z" transform="translate(55.932 6033.83)" fill="#fff"/>
      <path id="Path_45" data-name="Path 45" d="M-31.24-6086.653h1.11l4.1-4.1a.785.785,0,0,0,0-1.11.786.786,0,0,0-1.11,0l-2.746,2.745v-10.027a.784.784,0,0,0-.785-.784.784.784,0,0,0-.785.784v10.049l-2.767-2.767a.786.786,0,0,0-1.11,0,.785.785,0,0,0,0,1.11Z" transform="translate(39.563 6099.925)" fill="#fff"/>
    </g>
  </g>
</svg>
