<svg xmlns="http://www.w3.org/2000/svg" width="88.029" height="96" viewBox="0 0 88.029 96">
  <g id="Group_126" data-name="Group 126" transform="translate(4628.902 4027.219)">
    <g id="Group_126-2" data-name="Group 126" transform="translate(-4628.902 -3942.141)">
      <path id="Path_83" data-name="Path 83" d="M-4623.6-3876.888l-2.4-4.147h-.3v4.147h-2.6v-10.664h4.208a4.617,4.617,0,0,1,2.134.456,3.23,3.23,0,0,1,1.337,1.2,3.071,3.071,0,0,1,.448,1.61,3.326,3.326,0,0,1-.562,1.808,3.069,3.069,0,0,1-1.838,1.246l2.613,4.344Zm-2.7-6.122h1.61a1.247,1.247,0,0,0,.934-.35,1.267,1.267,0,0,0,.342-.927,1.286,1.286,0,0,0-.35-.927,1.225,1.225,0,0,0-.927-.364h-1.61Z" transform="translate(4628.902 3887.704)" fill="#394174"/>
      <path id="Path_84" data-name="Path 84" d="M-4604.7-3885.627v2.294h3.4v1.975h-3.4v2.477h3.859v1.975h-6.456V-3887.6h6.456v1.975Z" transform="translate(4620.479 3887.723)" fill="#394174"/>
      <path id="Path_85" data-name="Path 85" d="M-4582.615-3878.7h-3.829l-.592,1.792h-2.764l3.707-10.694h3.16l3.691,10.694h-2.78Zm-.654-1.975-1.261-3.8-1.26,3.8Z" transform="translate(4613.662 3887.723)" fill="#394174"/>
      <path id="Path_86" data-name="Path 86" d="M-4552.777-3887.552l-2.978,10.664h-2.977l-1.868-6.76-1.854,6.76h-2.978l-3.023-10.664h2.779l1.854,7.671,1.9-7.671h2.947l1.823,7.549,1.58-7.549Z" transform="translate(4605.342 3887.704)" fill="#394174"/>
      <path id="Path_87" data-name="Path 87" d="M-4530.091-3887.1a5.127,5.127,0,0,1,1.975,1.944,5.5,5.5,0,0,1,.722,2.811,5.5,5.5,0,0,1-.729,2.818,5.188,5.188,0,0,1-1.975,1.952,5.525,5.525,0,0,1-2.75.7,5.568,5.568,0,0,1-2.757-.7,5.163,5.163,0,0,1-1.982-1.952,5.5,5.5,0,0,1-.729-2.818,5.461,5.461,0,0,1,.729-2.811,5.18,5.18,0,0,1,1.982-1.944,5.568,5.568,0,0,1,2.757-.7A5.564,5.564,0,0,1-4530.091-3887.1Zm-4.815,2.521a3.172,3.172,0,0,0-.768,2.233,3.171,3.171,0,0,0,.768,2.233,2.656,2.656,0,0,0,2.058.835,2.641,2.641,0,0,0,2.043-.835,3.173,3.173,0,0,0,.767-2.233,3.174,3.174,0,0,0-.767-2.233,2.642,2.642,0,0,0-2.043-.835A2.658,2.658,0,0,0-4534.907-3884.581Z" transform="translate(4593.595 3887.801)" fill="#394174"/>
      <path id="Path_88" data-name="Path 88" d="M-4507.285-3887.552v1.975h-2.917v8.689h-2.6v-8.689h-2.9v-1.975Z" transform="translate(4584.78 3887.704)" fill="#394174"/>
      <path id="Path_89" data-name="Path 89" d="M-4492.631-3885.627v2.294h3.4v1.975h-3.4v2.477h3.858v1.975h-6.457V-3887.6h6.457v1.975Z" transform="translate(4576.802 3887.723)" fill="#394174"/>
    </g>
    <path id="Path_90" data-name="Path 90" d="M-4571-3991.6a.129.129,0,0,1-.047-.1.12.12,0,0,1,.116-.116.165.165,0,0,1,.055.013h0a11.927,11.927,0,0,0,4.9,1.057,12.046,12.046,0,0,0,12.045-12.045,12.032,12.032,0,0,0-5.3-9.98l-20.645-14.456h-17.3v17.3l17.3,12.112h-17.3v17.3l30.271,21.2h17.3v-17.3Z" transform="translate(-12.368 0)" fill="#394174"/>
  </g>
</svg>
