<svg xmlns="http://www.w3.org/2000/svg" width="32" height="32.004" viewBox="0 0 32 32.004"><defs><style>.a{fill:#fff;}</style></defs><path class="a" d="M-378.1,427.8a3.351,3.351,0,0,1-3.343,3.347,3.351,3.351,0,0,1-3.343-3.347,3.347,3.347,0,0,1,3.343-3.343A3.347,3.347,0,0,1-378.1,427.8Z" transform="translate(397.584 -411.801)"/><path class="a" d="M-385.362,411.27h-8.466a4.379,4.379,0,0,0-4.373,4.372v8.466a4.38,4.38,0,0,0,4.373,4.376h8.466a4.381,4.381,0,0,0,4.377-4.376v-8.466A4.38,4.38,0,0,0-385.362,411.27Zm-4.145,13.828a5.227,5.227,0,0,1-5.222-5.222,5.227,5.227,0,0,1,5.222-5.222,5.227,5.227,0,0,1,5.222,5.222A5.227,5.227,0,0,1-389.507,425.1Zm5.526-9.551a1.243,1.243,0,0,1-1.241-1.245,1.239,1.239,0,0,1,1.241-1.241,1.243,1.243,0,0,1,1.245,1.241A1.246,1.246,0,0,1-383.981,415.547Z" transform="translate(405.644 -403.873)"/><path class="a" d="M-400.862,392.73a16,16,0,0,0-16,16,16,16,0,0,0,16,16,16,16,0,0,0,16-16A16,16,0,0,0-400.862,392.73Zm10.656,20.235a6.382,6.382,0,0,1-6.371,6.371h-8.466a6.378,6.378,0,0,1-6.367-6.371V404.5a6.375,6.375,0,0,1,6.367-6.367h8.466a6.378,6.378,0,0,1,6.371,6.367Z" transform="translate(416.86 -392.73)"/></svg>