<svg xmlns="http://www.w3.org/2000/svg" width="32" height="32" viewBox="0 0 32 32"><defs><style>.a{fill:#fff;}</style></defs><path class="a" d="M-557.749,328.1a.317.317,0,0,1-.039.552l-4.815,2.638c-.21.115-.4-.038-.4-.274V325.6c0-.239.192-.393.4-.274Z" transform="translate(576.967 -312.289)"/><path class="a" d="M-582.49,292.2a16,16,0,0,0-16,16,16,16,0,0,0,16,16,16,16,0,0,0,16-16A16,16,0,0,0-582.49,292.2Zm10.124,18.717a4.34,4.34,0,0,1-4.34,4.34h-11.265a4.34,4.34,0,0,1-4.34-4.34v-5.281a4.339,4.339,0,0,1,4.34-4.34h11.265a4.34,4.34,0,0,1,4.34,4.34Z" transform="translate(598.49 -292.2)"/></svg>