<svg xmlns="http://www.w3.org/2000/svg" width="32" height="32" viewBox="0 0 32 32"><defs><style>.a{fill:#fff;}</style></defs><path class="a" d="M-476.17,172.48a16,16,0,0,0-16,16,16,16,0,0,0,16,16,16,16,0,0,0,16-16A16,16,0,0,0-476.17,172.48Zm4.691,9.223a.257.257,0,0,1-.255.255h-2.034a.9.9,0,0,0-.905.9v2.13h2.892a.255.255,0,0,1,.255.275l-.251,3a.256.256,0,0,1-.255.231h-2.641v9.961a.254.254,0,0,1-.255.255h-3.638a.257.257,0,0,1-.255-.255V188.5h-1.819a.255.255,0,0,1-.255-.255v-3a.257.257,0,0,1,.255-.255h1.819V182.1a3.649,3.649,0,0,1,3.65-3.65h3.439a.255.255,0,0,1,.255.255Z" transform="translate(492.17 -172.48)"/></svg>